<?xml version="1.0" encoding="UTF-8"?>
<svg width="24" height="24" version="1.1" viewBox="0 0 33.6 33.6" xmlns="http://www.w3.org/2000/svg">
 <g transform="matrix(.24145 0 0 .24145 -7.391 -24.59)">
  <path d="m71.73 220.54c-10.989-1.08-20.765-6.238-23.439-17.107-0.46121-2.0664-0.24459-4.1376 0.66051-6.3155 0.63974-1.5394 4.1939-7.127 5.9521-9.3576 0.62472-0.79255 0.94158-1.441 0.70414-1.441-1.7435 0-8.9706 6.9895-12.306 11.902-1.57 2.312-3.4275 3.849-4.6549 3.8518-1.4811 3e-3 -2.4589-2.4051-3.9775-9.7974-0.521-2.5362-1.6463-7.2915-2.5006-10.567-0.85435-3.2759-1.5555-6.5613-1.558-7.301-0.0026-0.73972 0.5862-4.4575 1.3084-8.2617s1.5052-8.2921 1.7401-9.9731c0.47683-3.4122 1.181-4.8212 2.4093-4.8212 0.9556 0 1.6403 0.7481 7.9225 8.6563 2.5229 3.1759 5.3813 6.4252 6.352 7.2206 1.8001 1.4751 4.9053 3.0637 6.9773 3.5696 1.9937 0.67092 0.75554-0.17134-0.03398-1.0713-1.1806-1.3458-3.6568-7.5109-5.8369-14.533-0.9382-3.0217-2.6254-7.2528-1.7149-13.766 0.91941-7.1295 3.9391-11.112 9.6241-13.277 7.4065-2.9132 15.799-4.3428 22.842-5.275 7.3432-0.97312 16.366-1.0158 21.915-0.10371 5.4262 0.70978 10.004 2.1266 13.15 3.0214 3.045 0.86639 10.6 4.0572 15.276 6.4519 2.9994 1.536 4.2711 2.4701 6.3672 4.6767 3.0424 3.2029 4.4144 5.4661 6.5341 10.778 3.1451 7.8822 10.733 22.626 13.274 25.792 1.5223 1.8967 4.1572 3.4811 7.3477 4.4182 1.4808 0.43498 2.9024 0.99177 3.1589 1.2373 0.62337 0.59659 0.75514 4.8416 0.18298 5.8946-0.2954 0.54364-1.2215 1.0599-2.6426 1.473-1.2033 0.34981-3.4086 1.25-4.9007 2.0005-6.0958 3.066-8.7856 5.2709-15.941 13.068-4.5075 4.9112-9.0085 8.8865-11.941 10.546-2.4808 1.4042-9.5027 4.0665-13.062 4.9525-1.6752 0.41694-5.344 1.097-8.1529 1.5113-8.5762 1.2648-36.564 2.5926-41.036 1.9468z"/>
 </g>
</svg>
